# xmcd CD database file
#
# Track frame offsets:
#	150
#	9694
#	20421
#	31952
#	49295
#	63726
#	80264
#	100763
#	112696
#	127210
#	140174
#	148126
#	159413
#	173274
#
# Disc length: 2509 seconds
#
# Revision: 1
# Processed by: cddbd v1.4PL0 Copyright (c) Steve Scherf et al.
# Submitted via: CDex 1.50
#
DISCID=ba09cb0e
DTITLE=Johnny Cash - American III: Solitary Man-2000
DYEAR=2000
DGENRE=Country
TTITLE0=I Won´t Back Down
TTITLE1=Solitary Man
TTITLE2=That Lucky Old Sun (Just Rolls Around Heaven All Day)
TTITLE3=One
TTITLE4=Nobody
TTITLE5=I See A Darkness
TTITLE6=The Mercy Seat
TTITLE7=Would You Lay With Me (In A Field Of Stone)
TTITLE8=Field Of Diamonds
TTITLE9=Before My Time
TTITLE10=Country Trash
TTITLE11=Mary Of The Wild Moor
TTITLE12=I´m Leavin´ Now
TTITLE13=Wayfaring Stranger
EXTD=YEAR: 2000
EXTT0=
EXTT1=
EXTT2=
EXTT3=
EXTT4=
EXTT5=
EXTT6=
EXTT7=
EXTT8=
EXTT9=
EXTT10=
EXTT11=
EXTT12=
EXTT13=
PLAYORDER=
